<mxfile host="app.diagrams.net" modified="2022-12-14T22:58:20.041Z" agent="5.0 (Windows NT 10.0; Win64; x64) AppleWebKit/537.36 (KHTML, like Gecko) Chrome/108.0.0.0 Safari/537.36" version="20.7.2" etag="xtZU7zSCQM1jy4da8Rf2" type="github">
  <diagram id="Yc7cM6DBjLEhnVrs72u3" name="Страница 1">
    <mxGraphModel dx="700" dy="361" grid="1" gridSize="10" guides="1" tooltips="1" connect="1" arrows="1" fold="1" page="1" pageScale="1" pageWidth="827" pageHeight="1169" math="0" shadow="0">
      <root>
        <mxCell id="0" />
        <mxCell id="1" parent="0" />
        <mxCell id="qqqocjiSpPOel7mwKaRF-3" style="edgeStyle=orthogonalEdgeStyle;rounded=0;orthogonalLoop=1;jettySize=auto;html=1;" edge="1" parent="1" source="qqqocjiSpPOel7mwKaRF-1">
          <mxGeometry relative="1" as="geometry">
            <mxPoint x="414" y="70" as="targetPoint" />
          </mxGeometry>
        </mxCell>
        <mxCell id="qqqocjiSpPOel7mwKaRF-1" value="початок" style="rounded=1;whiteSpace=wrap;html=1;" vertex="1" parent="1">
          <mxGeometry x="364" y="10" width="100" height="30" as="geometry" />
        </mxCell>
        <mxCell id="qqqocjiSpPOel7mwKaRF-6" style="edgeStyle=orthogonalEdgeStyle;rounded=0;orthogonalLoop=1;jettySize=auto;html=1;" edge="1" parent="1" source="qqqocjiSpPOel7mwKaRF-4" target="qqqocjiSpPOel7mwKaRF-5">
          <mxGeometry relative="1" as="geometry" />
        </mxCell>
        <mxCell id="qqqocjiSpPOel7mwKaRF-24" style="edgeStyle=orthogonalEdgeStyle;rounded=0;orthogonalLoop=1;jettySize=auto;html=1;exitX=0.5;exitY=0;exitDx=0;exitDy=0;" edge="1" parent="1" source="qqqocjiSpPOel7mwKaRF-4">
          <mxGeometry relative="1" as="geometry">
            <mxPoint x="414" y="95" as="targetPoint" />
          </mxGeometry>
        </mxCell>
        <mxCell id="qqqocjiSpPOel7mwKaRF-4" value="P = 1" style="rounded=0;whiteSpace=wrap;html=1;" vertex="1" parent="1">
          <mxGeometry x="384" y="70" width="64" height="30" as="geometry" />
        </mxCell>
        <mxCell id="qqqocjiSpPOel7mwKaRF-8" style="edgeStyle=orthogonalEdgeStyle;rounded=0;orthogonalLoop=1;jettySize=auto;html=1;" edge="1" parent="1" source="qqqocjiSpPOel7mwKaRF-5">
          <mxGeometry relative="1" as="geometry">
            <mxPoint x="416" y="180" as="targetPoint" />
            <Array as="points">
              <mxPoint x="416" y="180" />
              <mxPoint x="416" y="180" />
            </Array>
          </mxGeometry>
        </mxCell>
        <mxCell id="qqqocjiSpPOel7mwKaRF-5" value="n = 1" style="rounded=0;whiteSpace=wrap;html=1;" vertex="1" parent="1">
          <mxGeometry x="384" y="120" width="64" height="30" as="geometry" />
        </mxCell>
        <mxCell id="qqqocjiSpPOel7mwKaRF-11" style="edgeStyle=orthogonalEdgeStyle;rounded=0;orthogonalLoop=1;jettySize=auto;html=1;" edge="1" parent="1" source="qqqocjiSpPOel7mwKaRF-9">
          <mxGeometry relative="1" as="geometry">
            <mxPoint x="416" y="270" as="targetPoint" />
            <Array as="points">
              <mxPoint x="416" y="270" />
            </Array>
          </mxGeometry>
        </mxCell>
        <mxCell id="qqqocjiSpPOel7mwKaRF-9" value="n &amp;lt;= 20" style="rhombus;whiteSpace=wrap;html=1;" vertex="1" parent="1">
          <mxGeometry x="366" y="180" width="100" height="50" as="geometry" />
        </mxCell>
        <mxCell id="qqqocjiSpPOel7mwKaRF-14" style="edgeStyle=orthogonalEdgeStyle;rounded=0;orthogonalLoop=1;jettySize=auto;html=1;" edge="1" parent="1" source="qqqocjiSpPOel7mwKaRF-12">
          <mxGeometry relative="1" as="geometry">
            <mxPoint x="414" y="340" as="targetPoint" />
            <Array as="points">
              <mxPoint x="414" y="340" />
            </Array>
          </mxGeometry>
        </mxCell>
        <mxCell id="qqqocjiSpPOel7mwKaRF-12" value="S = 0" style="rounded=0;whiteSpace=wrap;html=1;" vertex="1" parent="1">
          <mxGeometry x="384" y="270" width="60" height="30" as="geometry" />
        </mxCell>
        <mxCell id="qqqocjiSpPOel7mwKaRF-16" style="edgeStyle=orthogonalEdgeStyle;rounded=0;orthogonalLoop=1;jettySize=auto;html=1;" edge="1" parent="1" source="qqqocjiSpPOel7mwKaRF-13">
          <mxGeometry relative="1" as="geometry">
            <mxPoint x="410" y="390" as="targetPoint" />
            <Array as="points">
              <mxPoint x="410" y="370" />
              <mxPoint x="410" y="370" />
            </Array>
          </mxGeometry>
        </mxCell>
        <mxCell id="qqqocjiSpPOel7mwKaRF-13" value="k = n" style="rounded=0;whiteSpace=wrap;html=1;" vertex="1" parent="1">
          <mxGeometry x="382" y="340" width="60" height="30" as="geometry" />
        </mxCell>
        <mxCell id="qqqocjiSpPOel7mwKaRF-19" style="edgeStyle=orthogonalEdgeStyle;rounded=0;orthogonalLoop=1;jettySize=auto;html=1;" edge="1" parent="1" source="qqqocjiSpPOel7mwKaRF-17">
          <mxGeometry relative="1" as="geometry">
            <mxPoint x="410" y="480" as="targetPoint" />
            <Array as="points">
              <mxPoint x="410" y="460" />
              <mxPoint x="410" y="460" />
            </Array>
          </mxGeometry>
        </mxCell>
        <mxCell id="qqqocjiSpPOel7mwKaRF-34" style="edgeStyle=orthogonalEdgeStyle;rounded=0;orthogonalLoop=1;jettySize=auto;html=1;" edge="1" parent="1" source="qqqocjiSpPOel7mwKaRF-17">
          <mxGeometry relative="1" as="geometry">
            <mxPoint x="410" y="610" as="targetPoint" />
            <Array as="points">
              <mxPoint x="480" y="415" />
              <mxPoint x="480" y="590" />
              <mxPoint x="410" y="590" />
            </Array>
          </mxGeometry>
        </mxCell>
        <mxCell id="qqqocjiSpPOel7mwKaRF-17" value="k &amp;lt;= n" style="rhombus;whiteSpace=wrap;html=1;" vertex="1" parent="1">
          <mxGeometry x="354" y="390" width="110" height="50" as="geometry" />
        </mxCell>
        <mxCell id="qqqocjiSpPOel7mwKaRF-22" style="edgeStyle=orthogonalEdgeStyle;rounded=0;orthogonalLoop=1;jettySize=auto;html=1;" edge="1" parent="1" source="qqqocjiSpPOel7mwKaRF-20" target="qqqocjiSpPOel7mwKaRF-21">
          <mxGeometry relative="1" as="geometry" />
        </mxCell>
        <mxCell id="qqqocjiSpPOel7mwKaRF-20" value="S += k*k" style="rounded=0;whiteSpace=wrap;html=1;" vertex="1" parent="1">
          <mxGeometry x="364" y="480" width="96" height="30" as="geometry" />
        </mxCell>
        <mxCell id="qqqocjiSpPOel7mwKaRF-32" style="edgeStyle=orthogonalEdgeStyle;rounded=0;orthogonalLoop=1;jettySize=auto;html=1;" edge="1" parent="1" source="qqqocjiSpPOel7mwKaRF-21">
          <mxGeometry relative="1" as="geometry">
            <mxPoint x="400" y="380" as="targetPoint" />
            <Array as="points">
              <mxPoint x="412" y="580" />
              <mxPoint x="330" y="580" />
              <mxPoint x="330" y="380" />
              <mxPoint x="370" y="380" />
            </Array>
          </mxGeometry>
        </mxCell>
        <mxCell id="qqqocjiSpPOel7mwKaRF-21" value="k++" style="rounded=0;whiteSpace=wrap;html=1;" vertex="1" parent="1">
          <mxGeometry x="380" y="540" width="64" height="30" as="geometry" />
        </mxCell>
        <mxCell id="qqqocjiSpPOel7mwKaRF-37" style="edgeStyle=orthogonalEdgeStyle;rounded=0;orthogonalLoop=1;jettySize=auto;html=1;" edge="1" parent="1" source="qqqocjiSpPOel7mwKaRF-35" target="qqqocjiSpPOel7mwKaRF-38">
          <mxGeometry relative="1" as="geometry">
            <mxPoint x="409" y="680" as="targetPoint" />
            <Array as="points">
              <mxPoint x="409" y="650" />
              <mxPoint x="409" y="650" />
            </Array>
          </mxGeometry>
        </mxCell>
        <mxCell id="qqqocjiSpPOel7mwKaRF-35" value="P *= (1 + sin(1.) * S) / (1 + cos(1.) * S)" style="rounded=0;whiteSpace=wrap;html=1;" vertex="1" parent="1">
          <mxGeometry x="349" y="610" width="120" height="40" as="geometry" />
        </mxCell>
        <mxCell id="qqqocjiSpPOel7mwKaRF-40" style="edgeStyle=orthogonalEdgeStyle;rounded=0;orthogonalLoop=1;jettySize=auto;html=1;entryX=0;entryY=0.5;entryDx=0;entryDy=0;" edge="1" parent="1" source="qqqocjiSpPOel7mwKaRF-38" target="qqqocjiSpPOel7mwKaRF-9">
          <mxGeometry relative="1" as="geometry">
            <mxPoint x="310" y="510" as="targetPoint" />
            <Array as="points">
              <mxPoint x="409" y="750" />
              <mxPoint x="310" y="750" />
              <mxPoint x="310" y="205" />
            </Array>
          </mxGeometry>
        </mxCell>
        <mxCell id="qqqocjiSpPOel7mwKaRF-38" value="n++" style="rounded=0;whiteSpace=wrap;html=1;" vertex="1" parent="1">
          <mxGeometry x="372" y="680" width="74" height="30" as="geometry" />
        </mxCell>
      </root>
    </mxGraphModel>
  </diagram>
</mxfile>
